<svg width="21" height="22" viewBox="0 0 21 22" fill="none" xmlns="http://www.w3.org/2000/svg">
<path fill-rule="evenodd" clip-rule="evenodd" d="M5.54718 2.41047C6.38315 2.34391 7.17682 2.01531 7.81518 1.47147C8.53625 0.856865 9.45272 0.519287 10.4002 0.519287C11.3476 0.519287 12.2641 0.856865 12.9852 1.47147C13.6235 2.01561 14.4171 2.34456 15.2532 2.41147C16.1976 2.48667 17.0843 2.89587 17.7543 3.56569C18.4243 4.2355 18.8337 5.12209 18.9092 6.06647C18.9752 6.90247 19.3042 7.69647 19.8492 8.33447C20.4636 9.05563 20.801 9.97206 20.801 10.9195C20.801 11.8669 20.4636 12.7833 19.8492 13.5045C19.305 14.1427 18.976 14.9364 18.9092 15.7725C18.8337 16.7168 18.4243 17.6034 17.7543 18.2732C17.0843 18.9431 16.1976 19.3523 15.2532 19.4275C14.4171 19.4944 13.6235 19.8233 12.9852 20.3675C12.2641 20.9821 11.3476 21.3196 10.4002 21.3196C9.45272 21.3196 8.53625 20.9821 7.81518 20.3675C7.17694 19.8233 6.38327 19.4943 5.54718 19.4275C4.60296 19.352 3.71649 18.9427 3.0467 18.2729C2.37691 17.6032 1.96761 16.7167 1.89218 15.7725C1.82534 14.9364 1.49639 14.1427 0.95218 13.5045C0.337578 12.7834 0 11.8669 0 10.9195C0 9.972 0.337578 9.05554 0.95218 8.33447C1.49639 7.69623 1.82534 6.90255 1.89218 6.06647C1.96739 5.12207 2.37659 4.23536 3.0464 3.56537C3.71621 2.89538 4.60281 2.48593 5.54718 2.41047ZM15.2192 9.23847C15.3444 9.11881 15.4445 8.97533 15.5135 8.81646C15.5825 8.65759 15.6191 8.48653 15.621 8.31333C15.623 8.14013 15.5904 7.96828 15.525 7.80788C15.4596 7.64748 15.3629 7.50176 15.2404 7.37928C15.1179 7.2568 14.9722 7.16003 14.8118 7.09466C14.6514 7.02928 14.4795 6.99662 14.3063 6.9986C14.1331 7.00057 13.9621 7.03714 13.8032 7.10615C13.6443 7.17516 13.5008 7.27523 13.3812 7.40047L9.10118 11.6805L7.41918 10.0005C7.1736 9.76583 6.84594 9.63663 6.50632 9.6405C6.16669 9.64437 5.84206 9.78101 5.60189 10.0212C5.36172 10.2613 5.22509 10.586 5.22122 10.9256C5.21735 11.2652 5.34655 11.5929 5.58118 11.8385L8.18118 14.4385C8.42496 14.6821 8.75552 14.819 9.10018 14.819C9.44484 14.819 9.7754 14.6821 10.0192 14.4385L15.2192 9.23847Z" fill="white"/>
</svg>
