<svg width="128" height="30" viewBox="0 0 128 30" fill="none" xmlns="http://www.w3.org/2000/svg">
<path d="M127 1.47609C124.896 -0.177128 124.405 2.89432 124.236 4.31269C124.026 6.07809 123.104 8.07855 121.04 8.07855C117.687 8.07855 111.308 4.83245 109.323 5.96025C108.391 6.49005 106.128 7.6548 106.128 8.78465C106.128 10.9361 103.91 12.1219 101.778 11.5567C100.065 11.1025 98.2594 9.66943 96.541 9.49075C95.7458 9.40806 95.7684 8.47369 95.2096 8.07855C94.6744 7.70012 94.6595 6.70698 93.8781 6.66635C92.6921 6.60469 91.4947 7.36074 90.6825 8.07855C89.9031 8.76744 89.0992 9.79524 88.5522 10.6414C88.221 11.1536 87.3045 11.1405 86.836 11.8444C85.7076 13.54 85.634 13.7151 84.9424 11.949C83.6127 8.5539 81.956 6.32207 79.4981 3.60659C78.5086 2.51341 76.1587 5.65783 75.77 6.43099C74.9526 8.0564 72.2089 9.08732 72.0418 11.0076C71.8614 13.0805 70.6391 12.2822 70.444 10.9029C70.0851 8.36516 68.4242 10.547 67.6923 11.086C66.7867 11.753 64.4286 10.0882 63.5204 9.96148C62.5371 9.82427 63.3973 8.90556 62.6919 8.54928C59.9141 7.14635 58.3463 10.4278 56.8925 12.0798C56.4833 12.5448 56.003 13.2278 55.6498 13.7273C54.928 14.7481 54.9672 13.0637 54.4663 12.5767C53.2305 11.3752 53.8593 9.49075 51.3891 9.49075C46.6561 9.49075 45.7626 17.0404 41.1515 17.4932C40.3936 17.5676 37.5348 18.5879 37.4234 19.3761C37.2193 20.8187 34.7655 15.9563 34.4941 15.6364C31.6673 12.3052 29.0393 19.3028 27.5704 20.6576C25.2258 22.82 24.0296 19.6898 23.0434 17.7286C21.755 15.1664 16.3155 22.1991 15.4687 23.6127C14.1998 25.7313 11.9572 23.0127 11.859 25.9664C11.7229 30.0548 8.52672 24.7431 6.82892 26.6725C5.92945 27.6946 5.749 26.9079 4.40267 26.9079C3.40041 26.9079 1.94601 28.5498 1 29" stroke="#00FE4A" stroke-linecap="round"/>
<path d="M123.3 4.67241C123.468 3.2747 124.912 -0.203833 127 1.42529V29H1C1.93884 28.5563 3.38218 26.9383 4.37683 26.9383C5.71294 26.9383 5.89202 27.7137 6.78467 26.7064C8.46958 24.8052 11.6415 30.0395 11.7765 26.0106C11.8741 23.0999 14.0995 25.7789 15.3589 23.6912C16.1992 22.2982 21.5974 15.3679 22.876 17.8928C23.8547 19.8255 25.0418 22.9101 27.3687 20.7791C28.8264 19.4441 31.4345 12.5484 34.2398 15.8311C34.5091 16.1463 36.9444 20.9379 37.1468 19.5164C37.2575 18.7396 40.0945 17.7342 40.8467 17.6609C45.4228 17.2146 46.3094 9.77502 51.0065 9.77502C53.458 9.77502 52.834 11.632 54.0604 12.816C54.5575 13.2959 54.5186 14.9558 55.2349 13.9499L55.2681 13.9032C55.6152 13.4158 56.0748 12.7702 56.4682 12.3263C57.9109 10.6984 59.4668 7.46478 62.2235 8.84727C62.9235 9.19835 62.0699 10.1037 63.0457 10.2389C63.947 10.3638 66.2872 12.0043 67.186 11.347C67.9123 10.8159 69.5606 8.66583 69.9168 11.1666C70.1104 12.5258 71.3234 13.3124 71.5024 11.2697C71.6683 9.37747 74.3912 8.36157 75.2023 6.75984C75.5881 5.99795 77.9202 2.89935 78.9021 3.9766C81.3413 6.65251 82.9855 8.85182 84.3051 12.1975C84.9915 13.9378 85.0645 13.7652 86.1843 12.0944C86.6493 11.4007 87.5588 11.4137 87.8874 10.9089C88.4304 10.0751 89.2281 9.06225 90.0016 8.3834C90.8076 7.67605 91.9959 6.93101 93.1729 6.99178C93.9484 7.03181 93.9632 8.01048 94.4943 8.3834C95.0489 8.77278 95.0265 9.69354 95.8157 9.77502C97.521 9.9511 99.313 11.3633 101.013 11.8109C103.128 12.3678 105.33 11.1993 105.33 9.07921C105.33 7.96582 107.575 6.81805 108.501 6.29597C110.471 5.18459 116.801 8.3834 120.129 8.3834C122.177 8.3834 123.092 6.41209 123.3 4.67241Z" fill="url(#paint0_linear_353_344)" fill-opacity="0.2"/>
<defs>
<linearGradient id="paint0_linear_353_344" x1="65.9933" y1="0.999999" x2="65.5457" y2="28.5379" gradientUnits="userSpaceOnUse">
<stop stop-color="#00FE4A"/>
<stop offset="1" stop-color="#00FE4A" stop-opacity="0"/>
</linearGradient>
</defs>
</svg>
