<svg overflow="hidden" xml:space="preserve" xmlns:xlink="http://www.w3.org/1999/xlink" xmlns="http://www.w3.org/2000/svg" height="150" width="740"><g transform="translate(-44 -124)"><g><g><g><path transform="matrix(1 0 0 1.00027 0.131152 0.0802057)" fill-opacity="1" fill-rule="nonzero" fill="#FFFFFF" d="M127.505 198.318C127.505 229.866 105.881 251.192 80.7029 251.192L58.7818 251.192 58.7818 249.562C62.6335 249.562 64.4086 245.561 64.4086 241.858L64.4086 156.845C64.4086 153.142 62.3362 149.142 58.7818 149.142L58.7818 147.511 80.7029 147.511C105.733 147.511 127.505 166.468 127.505 198.309ZM110.476 200.394C110.476 176.103 100.552 149.889 82.6309 149.889 80.7072 149.889 80.7072 151.664 80.7072 153.295L80.7072 246.453C80.7072 247.935 80.7072 249.562 82.7795 249.562 96.7 249.562 110.476 229.271 110.476 200.39Z"></path><path transform="matrix(1 0 0 1.00027 0.131152 0.0802057)" fill-opacity="1" fill-rule="nonzero" fill="#FFFFFF" d="M160.977 149.294C157.274 149.294 155.35 153.146 155.35 156.849L155.35 241.862C155.35 245.863 157.423 249.566 160.977 249.566L160.977 251.197 133.429 251.197 133.429 249.566C137.281 249.566 139.056 245.863 139.056 241.862L139.056 156.849C139.056 153.146 136.983 149.294 133.429 149.294L133.429 147.519 160.977 147.519 160.977 149.294Z"></path><path transform="matrix(1 0 0 1.00027 0.131152 0.0802057)" fill-opacity="1" fill-rule="nonzero" fill="#FFFFFF" d="M233.845 244.232C230.588 252.08 224.961 253.711 220.663 253.711 208.815 253.562 206.148 243.642 204.522 233.569 203.634 227.347 202.891 223.203 202.004 215.499 200.08 201.133 190.894 201.282 188.525 201.282L188.525 241.862C188.525 245.714 190.597 249.566 194.152 249.566L194.152 251.197 166.901 251.197 166.901 249.566C170.604 249.566 172.379 245.714 172.379 241.862L172.379 156.849C172.379 152.997 170.455 149.146 166.901 149.146L166.901 147.515 193.854 147.515C212.221 147.515 224.213 157.291 224.213 173.73 224.213 186.465 214.289 196.092 200.815 199.647 213.257 202.755 216.812 209.422 218.145 217.122 219.033 223.046 220.515 233.263 221.997 239.336 223.33 244.224 224.961 245.999 227.326 245.999 228.362 245.999 230.29 245.999 233.102 243.332L233.841 244.219ZM191.633 150.038C191.633 150.186 191.485 150.186 191.187 150.186 189.264 150.186 188.521 151.961 188.521 153.592L188.521 198.615C189.115 198.615 189.854 198.615 190.593 198.763 200.517 197.876 206.144 189.582 206.144 175.365 206.144 163.07 204.513 150.483 191.629 150.038Z"></path><path transform="matrix(1 0 0 1.00027 0.131152 0.0802057)" fill-opacity="1" fill-rule="nonzero" fill="#FFFFFF" d="M295.897 175.509 294.266 175.509C294.266 158.327 287.896 149.146 279.751 149.146 277.381 149.146 272.196 149.146 272.196 156.849L272.196 241.862C272.196 245.565 274.268 249.566 277.823 249.566L277.823 251.197 250.424 251.197 250.424 249.566C253.978 249.566 256.05 245.565 256.05 241.862L256.05 156.849C256.05 149.146 250.865 149.146 248.496 149.146 240.351 149.146 233.981 158.327 233.981 175.509L232.35 175.509 232.35 147.515 295.888 147.515 295.888 175.509Z"></path><path transform="matrix(1 0 0 1.00027 0.131152 0.0802057)" fill-opacity="1" fill-rule="nonzero" fill="#FFFFFF" d="M367.724 149.146C363.872 149.146 362.246 151.813 361.061 154.921L343.289 206.165 343.289 241.858C343.289 245.859 345.361 249.562 348.916 249.562L348.916 251.192 321.368 251.192 321.368 249.562C325.219 249.562 326.995 245.859 326.995 241.858L326.995 208.089 306.258 156.696 306.258 156.548 304.776 152.845C303.443 150.178 302.109 149.142 298.852 149.142L298.852 147.511 326.103 147.511 326.103 149.142C321.364 149.142 320.625 150.921 322.548 155.953L341.951 202.904 358.241 155.953C359.872 150.326 356.908 149.142 353.651 149.142L353.651 147.511 367.72 147.511 367.72 149.142Z"></path><path transform="matrix(1 0 0 1.00027 0.131152 0.0802057)" fill-opacity="1" fill-rule="nonzero" fill="#FFFFFF" d="M461.681 149.15C456.483 149.745 455.447 152.862 454.406 156.722L454.258 156.722 428.425 251.443 427.682 255.154 397.395 153.308C396.355 150.934 395.17 149.15 392.049 149.15L392.049 147.515 418.475 147.515 418.475 149.15C413.575 149.15 413.278 150.929 415.061 156.722L414.764 156.425 433.768 223.678 452.177 155.533C452.92 150.632 450.69 149.15 447.573 149.15L447.573 147.515 461.676 147.515 461.676 149.15Z"></path><path transform="matrix(1 0 0 1.00027 0.131152 0.0802057)" fill-opacity="1" fill-rule="nonzero" fill="#FFFFFF" d="M492.261 149.299C488.549 149.299 486.617 153.159 486.617 156.87L486.617 242.088C486.617 246.096 488.693 249.808 492.261 249.808L492.261 251.443 464.645 251.443 464.645 249.808C468.505 249.808 470.289 246.096 470.289 242.088L470.289 156.87C470.289 153.159 468.212 149.299 464.645 149.299L464.645 147.515 492.261 147.515 492.261 149.299Z"></path><path transform="matrix(1 0 0 1.00027 0.131152 0.0802057)" fill-opacity="1" fill-rule="nonzero" fill="#FFFFFF" d="M565.303 244.466C562.037 252.335 556.393 253.965 552.091 253.965 540.214 253.817 537.542 243.871 535.907 233.773 535.016 227.539 534.272 223.381 533.385 215.661 531.457 201.26 522.25 201.409 519.876 201.409L519.876 242.088C519.876 245.948 521.953 249.808 525.52 249.808L525.52 251.443 498.202 251.443 498.202 249.808C501.913 249.808 503.697 245.948 503.697 242.088L503.697 156.87C503.697 153.01 501.769 149.15 498.202 149.15L498.202 147.515 525.223 147.515C543.632 147.515 555.659 157.312 555.659 173.793 555.659 186.563 545.713 196.211 532.2 199.774 544.672 202.891 548.235 209.571 549.569 217.291 550.461 223.228 551.943 233.475 553.429 239.561 554.767 244.461 556.397 246.241 558.776 246.241 559.816 246.241 561.744 246.241 564.564 243.57L565.307 244.461ZM522.993 150.042C522.993 150.19 522.845 150.19 522.548 150.19 520.615 150.19 519.876 151.974 519.876 153.605L519.876 198.738C520.471 198.738 521.214 198.738 521.953 198.887 531.899 197.995 537.542 189.684 537.542 175.428 537.542 163.104 535.907 150.488 522.993 150.042Z"></path><path transform="matrix(1 0 0 1.00027 0.131152 0.0802057)" fill-opacity="1" fill-rule="nonzero" fill="#FFFFFF" d="M653.934 206.012C648.294 206.012 643.988 204.675 643.988 213.138L643.988 251.443 642.353 251.443C640.277 246.988 639.236 244.614 633.593 247.88 627.507 251.443 616.372 253.078 610.58 253.078 582.225 253.078 559.362 229.025 559.362 199.481 559.362 169.937 585.194 145.884 613.549 145.884 620.972 145.884 627.8 147.371 633.89 150.19 638.79 152.267 639.534 151.231 639.678 147.519L641.313 147.519 641.313 177.212 639.678 177.212C634.48 157.911 614.738 152.271 602.86 152.271 586.676 152.271 573.019 162.663 573.019 183.301 573.019 208.242 597.216 247.736 623.791 247.736 626.908 247.736 627.503 245.803 627.652 242.092L627.652 213.142C627.652 204.679 621.417 206.017 616.22 206.017L616.22 203.94 653.93 203.94 653.93 206.017Z"></path><path transform="matrix(1 0 0 1.00027 0.131152 0.0802057)" fill-opacity="1" fill-rule="nonzero" fill="#FFFFFF" d="M683.032 149.299C679.32 149.299 677.388 153.159 677.388 156.87L677.388 242.088C677.388 246.096 679.465 249.808 683.032 249.808L683.032 251.443 655.416 251.443 655.416 249.808C659.276 249.808 661.06 246.096 661.06 242.088L661.06 156.87C661.06 153.159 658.983 149.299 655.416 149.299L655.416 147.515 683.032 147.515 683.032 149.299Z"></path><path transform="matrix(1 0 0 1.00027 0.131152 0.0802057)" fill-opacity="1" fill-rule="nonzero" fill="#FFFFFF" d="M749.84 149.15C745.98 149.15 744.052 153.159 744.052 156.87L744.052 251.443 741.678 251.443C741.678 251.443 707.828 183.892 698.328 165.334L698.328 242.088C698.328 245.799 700.405 249.808 704.265 249.808L704.265 251.443 690.311 251.443 690.311 249.808C694.022 249.808 695.954 245.799 695.954 242.088L695.954 165.483C695.954 155.388 688.977 147.519 688.977 147.519L706.643 147.519 741.682 216.553 741.682 156.87C741.682 153.159 739.457 149.001 736.038 149.15L736.038 147.515 749.844 147.515 749.844 149.15Z"></path><path transform="matrix(1 0 0 1.00027 0.131152 0.0802057)" fill-opacity="1" fill-rule="nonzero" fill="#FFFFFF" d="M753.717 150.955 753.717 147.502 761.56 147.502 761.56 150.955 761.382 150.955C761.382 148.849 760.575 147.727 759.59 147.727 759.276 147.727 758.647 147.727 758.647 148.67L758.647 159.155C758.647 159.648 758.915 160.14 759.365 160.14L759.365 160.319 755.959 160.319 755.959 160.14C756.409 160.14 756.63 159.648 756.63 159.155L756.63 148.67C756.63 147.727 756.002 147.727 755.734 147.727 754.702 147.727 753.942 148.849 753.942 150.955L753.717 150.955ZM764.83 147.502 767.697 156.913 770.343 147.502 772.763 147.502 772.763 147.727C772.313 147.727 772.045 148.22 772.045 148.67L772.045 159.155C772.045 159.648 772.313 160.14 772.763 160.14L772.763 160.319 769.311 160.319 769.311 160.14C769.803 160.094 770.028 159.648 770.028 159.155L770.028 150.148 769.892 150.148 766.979 160.501 766.932 160.769 763.616 150.148 763.438 150.148 763.438 159.155C763.438 159.648 763.705 160.14 764.198 160.14L764.198 160.319 762.448 160.319 762.448 160.14C762.941 160.14 763.166 159.648 763.166 159.155L763.166 149.745C763.166 148.492 762.091 147.502 762.091 147.502L764.826 147.502Z"></path></g></g></g></g></svg>